<svg width="512" height="512" viewBox="0 0 512 512" fill="none" xmlns="http://www.w3.org/2000/svg" role="img" aria-labelledby="title desc">
  <title id="title">WaseemBrain Emoji</title>
  <desc id="desc">Small Waseem Brain emoji with a neural halo and friendly face.</desc>
  <defs>
    <linearGradient id="bg" x1="48" y1="36" x2="456" y2="472" gradientUnits="userSpaceOnUse">
      <stop offset="0" stop-color="#08131F" />
      <stop offset="0.58" stop-color="#102236" />
      <stop offset="1" stop-color="#0A1624" />
    </linearGradient>
    <linearGradient id="ring" x1="116" y1="92" x2="394" y2="418" gradientUnits="userSpaceOnUse">
      <stop offset="0" stop-color="#C8F5D6" />
      <stop offset="0.52" stop-color="#84D7FA" />
      <stop offset="1" stop-color="#53E2D0" />
    </linearGradient>
    <linearGradient id="brain" x1="168" y1="152" x2="338" y2="254" gradientUnits="userSpaceOnUse">
      <stop offset="0" stop-color="#163A52" />
      <stop offset="1" stop-color="#214F66" />
    </linearGradient>
  </defs>

  <rect x="20" y="20" width="472" height="472" rx="116" fill="url(#bg)" />
  <rect x="20" y="20" width="472" height="472" rx="116" stroke="#173149" stroke-width="2" />

  <g opacity="0.14">
    <path d="M84 132H428" stroke="#A8BED2" stroke-width="1" />
    <path d="M84 212H428" stroke="#A8BED2" stroke-width="1" />
    <path d="M84 292H428" stroke="#A8BED2" stroke-width="1" />
    <path d="M84 372H428" stroke="#A8BED2" stroke-width="1" />
    <path d="M136 84V428" stroke="#A8BED2" stroke-width="1" />
    <path d="M256 84V428" stroke="#A8BED2" stroke-width="1" />
    <path d="M376 84V428" stroke="#A8BED2" stroke-width="1" />
  </g>

  <circle cx="256" cy="258" r="142" fill="#0B1826" stroke="url(#ring)" stroke-width="16" />
  <circle cx="256" cy="258" r="112" fill="#122334" />
  <path d="M175 210C175 173 205 143 242 143H270C307 143 337 173 337 210V220H175V210Z" fill="url(#brain)" stroke="#7DD4F7" stroke-width="8" />
  <path d="M217 146V220" stroke="#8BDCF8" stroke-width="7" stroke-linecap="round" />
  <path d="M256 143V220" stroke="#8BDCF8" stroke-width="7" stroke-linecap="round" />
  <path d="M295 146V220" stroke="#8BDCF8" stroke-width="7" stroke-linecap="round" />
  <path d="M186 203C194 183 211 170 231 170" stroke="#C8F5D6" stroke-width="7" stroke-linecap="round" />
  <path d="M326 203C318 183 301 170 281 170" stroke="#C8F5D6" stroke-width="7" stroke-linecap="round" />

  <circle cx="218" cy="267" r="15" fill="#D9FBFF" />
  <circle cx="218" cy="267" r="6" fill="#0A1520" />
  <path d="M283 264C295 254 311 257 321 271" stroke="#D9FBFF" stroke-width="11" stroke-linecap="round" />
  <path d="M215 323C233 342 279 342 297 323" stroke="#C8F5D6" stroke-width="12" stroke-linecap="round" />
  <circle cx="205" cy="310" r="7" fill="#F3C26F" opacity="0.9" />
  <circle cx="307" cy="310" r="7" fill="#F3C26F" opacity="0.9" />

  <path d="M154 181L112 151" stroke="#53E2D0" stroke-width="10" stroke-linecap="round" />
  <path d="M358 181L400 151" stroke="#84D7FA" stroke-width="10" stroke-linecap="round" />
  <path d="M330 367L367 401" stroke="#53E2D0" stroke-width="10" stroke-linecap="round" />
  <circle cx="112" cy="151" r="13" fill="#53E2D0" />
  <circle cx="400" cy="151" r="13" fill="#84D7FA" />
  <circle cx="367" cy="401" r="13" fill="#C8F5D6" />
</svg>