<svg width="1600" height="560" viewBox="0 0 1600 560" fill="none" xmlns="http://www.w3.org/2000/svg" role="img" aria-labelledby="title desc">
  <title id="title">WaseemBrain Logo Banner</title>
  <desc id="desc">Primary Waseem Brain banner logo with emoji icon and wordmark.</desc>
  <defs>
    <linearGradient id="bg" x1="70" y1="30" x2="1530" y2="530" gradientUnits="userSpaceOnUse">
      <stop offset="0" stop-color="#08121D" />
      <stop offset="0.55" stop-color="#0F2133" />
      <stop offset="1" stop-color="#091722" />
    </linearGradient>
    <linearGradient id="ring" x1="138" y1="104" x2="466" y2="430" gradientUnits="userSpaceOnUse">
      <stop offset="0" stop-color="#C8F5D6" />
      <stop offset="0.52" stop-color="#84D7FA" />
      <stop offset="1" stop-color="#53E2D0" />
    </linearGradient>
    <linearGradient id="word" x1="584" y1="134" x2="1448" y2="352" gradientUnits="userSpaceOnUse">
      <stop offset="0" stop-color="#F7FBFF" />
      <stop offset="0.66" stop-color="#D0EEFD" />
      <stop offset="1" stop-color="#7EE3D6" />
    </linearGradient>
  </defs>

  <rect x="20" y="20" width="1560" height="520" rx="38" fill="url(#bg)" />
  <rect x="20" y="20" width="1560" height="520" rx="38" stroke="#173149" stroke-width="2" />

  <g opacity="0.13">
    <path d="M82 118H1518" stroke="#A5BBCE" stroke-width="1" />
    <path d="M82 206H1518" stroke="#A5BBCE" stroke-width="1" />
    <path d="M82 294H1518" stroke="#A5BBCE" stroke-width="1" />
    <path d="M82 382H1518" stroke="#A5BBCE" stroke-width="1" />
    <path d="M82 470H1518" stroke="#A5BBCE" stroke-width="1" />
    <path d="M240 66V494" stroke="#A5BBCE" stroke-width="1" />
    <path d="M398 66V494" stroke="#A5BBCE" stroke-width="1" />
    <path d="M556 66V494" stroke="#A5BBCE" stroke-width="1" />
  </g>

  <circle cx="300" cy="278" r="142" fill="#0B1826" stroke="url(#ring)" stroke-width="18" />
  <circle cx="300" cy="278" r="112" fill="#122334" />
  <path d="M219 230C219 193 249 163 286 163H314C351 163 381 193 381 230V240H219V230Z" fill="#183B54" stroke="#84D7FA" stroke-width="9" />
  <path d="M261 166V240" stroke="#8BDCF8" stroke-width="8" stroke-linecap="round" />
  <path d="M300 163V240" stroke="#8BDCF8" stroke-width="8" stroke-linecap="round" />
  <path d="M339 166V240" stroke="#8BDCF8" stroke-width="8" stroke-linecap="round" />
  <path d="M230 223C238 203 255 190 275 190" stroke="#C8F5D6" stroke-width="8" stroke-linecap="round" />
  <path d="M370 223C362 203 345 190 325 190" stroke="#C8F5D6" stroke-width="8" stroke-linecap="round" />
  <circle cx="262" cy="287" r="16" fill="#D9FBFF" />
  <circle cx="262" cy="287" r="6" fill="#091520" />
  <path d="M327 284C339 274 355 277 365 291" stroke="#D9FBFF" stroke-width="12" stroke-linecap="round" />
  <path d="M258 343C278 363 322 363 342 343" stroke="#C8F5D6" stroke-width="13" stroke-linecap="round" />
  <circle cx="162" cy="174" r="14" fill="#53E2D0" />
  <circle cx="435" cy="176" r="14" fill="#84D7FA" />
  <circle cx="405" cy="420" r="14" fill="#C8F5D6" />
  <path d="M199 205L162 174" stroke="#53E2D0" stroke-width="12" stroke-linecap="round" />
  <path d="M403 207L435 176" stroke="#84D7FA" stroke-width="12" stroke-linecap="round" />
  <path d="M369 396L405 420" stroke="#C8F5D6" stroke-width="12" stroke-linecap="round" />

  <text x="584" y="126" fill="#7EE3D6" font-family="Segoe UI, Arial, sans-serif" font-size="22" font-weight="700" letter-spacing="5">SOURCE-VISIBLE OFFLINE INTELLIGENCE SYSTEM</text>
  <text x="584" y="278" fill="url(#word)" font-family="Segoe UI, Arial, sans-serif" font-size="108" font-weight="800" letter-spacing="3">WASEEMBRAIN</text>
  <text x="584" y="348" fill="#C8D6E2" font-family="Segoe UI, Arial, sans-serif" font-size="27" font-weight="500">Grounded reasoning, typed experts, memory recall, file and voice input.</text>
  <text x="584" y="388" fill="#C8D6E2" font-family="Segoe UI, Arial, sans-serif" font-size="27" font-weight="500">Deployable local delivery with a real offline-first runtime.</text>
  <rect x="584" y="424" width="404" height="10" rx="5" fill="#53E2D0" opacity="0.95" />
  <rect x="1004" y="424" width="228" height="10" rx="5" fill="#84D7FA" opacity="0.74" />

  <g opacity="0.9">
    <path d="M1402 136C1446 136 1482 171 1482 214V226H1322V214C1322 171 1358 136 1402 136Z" fill="#10283A" stroke="#22455F" stroke-width="2" />
    <path d="M1338 214C1348 184 1377 164 1408 164" stroke="#53E2D0" stroke-width="6" stroke-linecap="round" />
    <path d="M1464 214C1454 184 1425 164 1394 164" stroke="#84D7FA" stroke-width="6" stroke-linecap="round" />
    <circle cx="1377" cy="248" r="10" fill="#D9FBFF" />
    <circle cx="1427" cy="248" r="10" fill="#D9FBFF" />
    <path d="M1376 290C1389 304 1415 304 1428 290" stroke="#C8F5D6" stroke-width="8" stroke-linecap="round" />
  </g>
</svg>